<svg xmlns="http://www.w3.org/2000/svg" viewBox="0 0 200 60" fill="none">
  <defs>
    <linearGradient id="gradient" x1="0%" y1="0%" x2="100%" y2="100%">
      <stop offset="0%" style="stop-color:#ec4899"/>
      <stop offset="100%" style="stop-color:#f43f5e"/>
    </linearGradient>
  </defs>
  <!-- Heart icon with flow wave -->
  <g transform="translate(10, 8)">
    <!-- Heart shape -->
    <path d="M22 8.5C22 5.5 19.5 3 16.5 3C14.5 3 12.8 4 11.8 5.5C10.8 4 9.1 3 7.1 3C4.1 3 1.6 5.5 1.6 8.5C1.6 15 11.8 23 11.8 23C11.8 23 22 15 22 8.5Z" fill="url(#gradient)"/>
    <!-- Flow wave inside heart -->
    <path d="M6 11C8 9 10 13 12 11C14 9 16 13 18 11" stroke="white" stroke-width="1.5" stroke-linecap="round" fill="none"/>
  </g>
  <!-- Text: Flow -->
  <text x="42" y="38" font-family="system-ui, -apple-system, sans-serif" font-size="26" font-weight="700" fill="url(#gradient)">Flow</text>
  <!-- Text: Dating -->
  <text x="102" y="38" font-family="system-ui, -apple-system, sans-serif" font-size="26" font-weight="400" fill="#374151">Dating</text>
</svg>
